<?xml version="1.0" standalone="no"?>
<!DOCTYPE svg PUBLIC "-//W3C//DTD SVG 20010904//EN"
 "http://www.w3.org/TR/2001/REC-SVG-20010904/DTD/svg10.dtd">
<svg version="1.0" xmlns="http://www.w3.org/2000/svg"
 width="323.000000pt" height="130.000000pt" viewBox="0 0 323.000000 130.000000"
 preserveAspectRatio="xMidYMid meet">

<g transform="translate(0.000000,130.000000) scale(0.100000,-0.100000)"
fill="#004786" stroke="none">
<path d="M875 928 c-190 -135 -341 -234 -460 -303 -55 -31 -104 -62 -108 -69
-10 -14 0 -95 14 -112 8 -10 2 -47 -26 -145 -31 -108 -35 -133 -24 -140 16
-10 149 -12 173 -3 11 4 13 11 7 22 -12 23 -20 162 -10 162 4 0 39 -38 78 -84
38 -46 85 -90 104 -100 35 -16 111 -22 141 -10 18 7 22 34 5 34 -6 0 -42 30
-81 68 -67 64 -108 121 -123 170 -6 20 -3 22 28 22 19 0 54 7 77 15 45 16 100
20 100 8 0 -5 -7 -33 -15 -63 -25 -93 -16 -170 20 -170 8 0 29 -18 46 -40 30
-38 35 -40 86 -40 61 0 61 -1 32 90 -12 39 -23 106 -26 167 l-6 102 42 47 c57
65 57 107 0 169 -48 52 -30 63 24 15 19 -16 37 -30 41 -30 3 0 6 27 6 59 l0
60 55 12 c30 7 55 17 55 24 0 28 -61 131 -87 147 l-28 16 -140 -100z"/>
<path d="M2401 1014 c-116 -31 -191 -118 -191 -221 0 -104 50 -174 165 -229
38 -19 75 -34 83 -34 26 0 122 -52 142 -77 46 -59 10 -138 -68 -153 -84 -15
-170 24 -210 95 -11 19 -13 19 -77 -14 -36 -19 -65 -38 -65 -41 0 -16 60 -99
91 -124 150 -126 421 -87 502 73 16 33 27 71 27 95 0 130 -73 206 -267 280
-109 42 -128 53 -142 83 -18 39 -13 63 18 94 24 24 38 29 76 29 54 0 115 -28
143 -66 l19 -27 66 38 66 38 -19 27 c-26 36 -92 95 -127 114 -28 14 -131 37
-162 35 -9 0 -40 -7 -70 -15z"/>
<path d="M1360 585 l0 -425 85 0 85 0 0 175 0 175 175 0 175 0 0 -175 0 -175
90 0 90 0 0 425 0 425 -90 0 -90 0 0 -175 0 -175 -175 0 -175 0 0 175 0 175
-85 0 -85 0 0 -425z"/>
<path d="M1086 821 c-28 -6 -31 -11 -43 -76 -16 -85 -11 -105 26 -105 39 0 61
20 67 62 7 40 -3 129 -14 127 -4 -1 -20 -4 -36 -8z"/>
<path d="M1010 591 c-6 -17 -23 -37 -36 -46 -27 -18 -30 -36 -10 -68 8 -12 24
-66 36 -120 17 -77 29 -106 52 -133 30 -33 30 -35 13 -54 -18 -20 -17 -20 57
-20 99 0 110 9 93 75 -7 28 -40 111 -73 185 -33 74 -63 150 -67 168 -3 17 -10
32 -15 32 -5 0 -15 2 -23 6 -9 3 -18 -5 -27 -25z"/>
</g>
</svg>
