<?xml version="1.0" standalone="no"?>
<!DOCTYPE svg PUBLIC "-//W3C//DTD SVG 20010904//EN"
 "http://www.w3.org/TR/2001/REC-SVG-20010904/DTD/svg10.dtd">
<svg version="1.0" xmlns="http://www.w3.org/2000/svg"
 width="99.000000pt" height="91.000000pt" viewBox="0 0 99.000000 91.000000"
 preserveAspectRatio="xMidYMid meet">

<g transform="translate(0.000000,91.000000) scale(0.100000,-0.100000)"
fill="#004786" stroke="none">
<path d="M635 806 c-210 -149 -334 -231 -461 -304 -115 -66 -119 -70 -122
-105 -2 -20 4 -52 13 -71 16 -33 15 -38 -10 -116 -40 -129 -48 -172 -33 -182
15 -9 149 -11 172 -2 12 5 13 10 5 25 -5 11 -9 52 -7 91 l3 72 74 -88 c44 -53
87 -94 107 -102 34 -14 110 -19 138 -8 22 8 20 31 -3 39 -32 10 -160 150 -181
200 -11 25 -20 49 -20 51 0 2 15 4 34 4 18 0 53 7 76 15 45 16 100 20 100 8 0
-5 -7 -33 -15 -63 -25 -92 -17 -170 16 -170 10 0 33 -18 50 -40 30 -38 35 -40
86 -40 61 0 61 -1 32 90 -12 39 -23 106 -26 168 l-6 103 36 37 c66 68 66 117
0 184 -45 46 -24 52 27 8 52 -43 59 -40 53 29 l-6 58 54 13 c30 7 57 14 61 17
14 8 -64 144 -91 157 -26 14 -31 11 -156 -78z"/>
<path d="M828 693 c-23 -4 -28 -10 -28 -31 0 -15 -5 -44 -11 -66 -16 -57 -5
-86 31 -86 44 0 70 31 70 84 0 60 -10 106 -24 105 -6 -1 -23 -4 -38 -6z"/>
<path d="M760 461 c-6 -17 -23 -37 -36 -46 -28 -18 -30 -32 -9 -71 8 -16 24
-70 36 -122 15 -69 28 -102 50 -126 26 -30 27 -34 13 -54 -15 -22 -15 -22 59
-22 43 0 80 5 90 13 16 11 16 16 1 66 -9 30 -40 109 -69 175 -29 67 -59 140
-66 164 -7 23 -16 42 -20 42 -4 0 -14 2 -22 6 -9 3 -18 -5 -27 -25z"/>
</g>
</svg>
